Ayanna-latin-0.ufo
<glyph name="exclam" format="1">
  <advance width="240"/>
  <unicode hex="0021"/>
  <outline>
    <contour>
      <point x="142" y="697" type="line"/>
      <point x="93" y="697" type="line"/>
      <point x="101" y="155" type="line"/>
      <point x="134" y="155" type="line"/>
    </contour>
    <component base="period" xOffset="28"/>
  </outline>
</glyph>
<glyph name="numbersign" format="1">
  <advance width="654"/>
  <unicode hex="0023"/>
  <outline>
    <contour>
      <point x="297" y="675" type="line"/>
      <point x="101" y="0" type="line"/>
      <point x="140" y="0" type="line"/>
      <point x="335" y="675" type="line"/>
    </contour>
    <contour>
      <point x="508" y="675" type="line"/>
      <point x="313" y="0" type="line"/>
      <point x="352" y="0" type="line"/>
      <point x="546" y="675" type="line"/>
    </contour>
    <contour>
      <point x="88" y="482" type="line"/>
      <point x="88" y="452" type="line"/>
      <point x="635" y="452" type="line"/>
      <point x="635" y="482" type="line"/>
    </contour>
    <contour>
      <point x="19" y="240" type="line"/>
      <point x="19" y="210" type="line"/>
      <point x="565" y="211" type="line"/>
      <point x="565" y="240" type="line"/>
    </contour>
  </outline>
</glyph>
<glyph name="dollar" format="1">
  <advance width="506"/>
  <unicode hex="0024"/>
  <outline>
    <contour>
      <point x="348" y="-7"/>
      <point x="429" y="49"/>
      <point x="429" y="157" type="curve" smooth="yes"/>
      <point x="429" y="364"/>
      <point x="141" y="316"/>
      <point x="141" y="479" type="curve" smooth="yes"/>
      <point x="141" y="558"/>
      <point x="203" y="600"/>
      <point x="274" y="600" type="curve" smooth="yes"/>
      <point x="328" y="600"/>
      <point x="374" y="579"/>
      <point x="397" y="531" type="curve"/>
      <point x="432" y="549" type="line"/>
      <point x="405" y="609"/>
      <point x="346" y="637"/>
      <point x="278" y="637" type="curve" smooth="yes"/>
      <point x="186" y="637"/>
      <point x="97" y="581"/>
      <point x="97" y="479" type="curve" smooth="yes"/>
      <point x="97" y="281"/>
      <point x="385" y="332"/>
      <point x="385" y="157" type="curve" smooth="yes"/>
      <point x="385" y="73"/>
      <point x="331" y="30"/>
      <point x="250" y="30" type="curve" smooth="yes"/>
      <point x="199" y="30"/>
      <point x="151" y="45"/>
      <point x="102" y="79" type="curve"/>
      <point x="80" y="46" type="line"/>
      <point x="130" y="11"/>
      <point x="189" y="-7"/>
      <point x="247" y="-7" type="curve" smooth="yes"/>
    </contour>
    <contour>
      <point x="278" y="-87" type="line"/>
      <point x="278" y="8" type="line"/>
      <point x="245" y="8" type="line"/>
      <point x="245" y="-87" type="line"/>
    </contour>
    <contour>
      <point x="278" y="617" type="line"/>
      <point x="278" y="717" type="line"/>
      <point x="245" y="717" type="line"/>
      <point x="245" y="617" type="line"/>
    </contour>
  </outline>
</glyph>
<glyph name="parenleft" format="1">
  <advance width="327"/>
  <unicode hex="0028"/>
  <outline>
    <contour>
      <point x="236" y="-5"/>
      <point x="198" y="146"/>
      <point x="198" y="298" type="curve" smooth="yes"/>
      <point x="198" y="447"/>
      <point x="235" y="597"/>
      <point x="311" y="725" type="curve"/>
      <point x="211" y="776" type="line"/>
      <point x="120" y="627"/>
      <point x="75" y="460"/>
      <point x="75" y="293" type="curve" smooth="yes"/>
      <point x="75" y="127"/>
      <point x="120" y="-38"/>
      <point x="210" y="-187" type="curve"/>
      <point x="312" y="-133" type="line"/>
    </contour>
  </outline>
</glyph>
<glyph name="period" format="1">
  <advance width="180"/>
  <unicode hex="002E"/>
  <outline>
    <contour>
      <point x="112" y="-5"/>
      <point x="125" y="11"/>
      <point x="125" y="34" type="curve" smooth="yes"/>
      <point x="125" y="56"/>
      <point x="112" y="72"/>
      <point x="90" y="72" type="curve" smooth="yes"/>
      <point x="68" y="72"/>
      <point x="55" y="56"/>
      <point x="55" y="34" type="curve" smooth="yes"/>
      <point x="55" y="11"/>
      <point x="68" y="-5"/>
      <point x="90" y="-5" type="curve" smooth="yes"/>
    </contour>
  </outline>
</glyph>
<glyph name="six" format="1">
  <advance width="507"/>
  <unicode hex="0036"/>
  <outline>
    <contour>
      <point x="402" y="-15"/>
      <point x="477" y="102"/>
      <point x="477" y="230" type="curve" smooth="yes"/>
      <point x="477" y="364"/>
      <point x="383" y="446"/>
      <point x="289" y="446" type="curve" smooth="yes"/>
      <point x="228" y="446"/>
      <point x="167" y="411"/>
      <point x="133" y="333" type="curve"/>
      <point x="165" y="333" type="line"/>
      <point x="165" y="449"/>
      <point x="184" y="581"/>
      <point x="285" y="581" type="curve" smooth="yes"/>
      <point x="318" y="581"/>
      <point x="354" y="564"/>
      <point x="384" y="530" type="curve"/>
      <point x="468" y="595" type="line"/>
      <point x="424" y="657"/>
      <point x="354" y="690"/>
      <point x="285" y="690" type="curve" smooth="yes"/>
      <point x="113" y="690"/>
      <point x="33" y="514"/>
      <point x="33" y="318" type="curve" smooth="yes"/>
      <point x="33" y="104"/>
      <point x="108" y="-15"/>
      <point x="256" y="-15" type="curve" smooth="yes"/>
    </contour>
    <contour>
      <point x="208" y="95"/>
      <point x="172" y="135"/>
      <point x="172" y="217" type="curve" smooth="yes"/>
      <point x="172" y="299"/>
      <point x="208" y="340"/>
      <point x="257" y="340" type="curve" smooth="yes"/>
      <point x="307" y="340"/>
      <point x="343" y="299"/>
      <point x="343" y="216" type="curve" smooth="yes"/>
      <point x="343" y="135"/>
      <point x="307" y="95"/>
      <point x="258" y="95" type="curve" smooth="yes"/>
    </contour>
  </outline>
</glyph>
<glyph name="seven" format="1">
  <advance width="390"/>
  <unicode hex="0037"/>
  <outline>
    <contour>
      <point x="197" y="62"/>
      <point x="269" y="272"/>
      <point x="372" y="507" type="curve"/>
      <point x="372" y="540" type="line"/>
      <point x="10" y="540" type="line"/>
      <point x="10" y="498" type="line"/>
      <point x="332" y="498" type="line"/>
      <point x="327" y="505" type="line"/>
      <point x="236" y="296"/>
      <point x="159" y="94"/>
      <point x="95" y="-129" type="curve"/>
      <point x="141" y="-140" type="line"/>
    </contour>
  </outline>
</glyph>
<glyph name="greater" format="1">
  <advance width="427"/>
  <unicode hex="003E"/>
  <outline>
    <contour>
      <point x="367" y="254" type="line"/>
      <point x="107" y="507" type="line"/>
      <point x="80" y="475" type="line"/>
      <point x="314" y="253" type="line"/>
      <point x="80" y="21" type="line"/>
      <point x="106" y="-7" type="line"/>
    </contour>
  </outline>
</glyph>
<glyph name="question" format="1">
  <advance width="484"/>
  <unicode hex="003F"/>
  <outline>
    <contour>
      <point x="219" y="199" type="line"/>
      <point x="218" y="207"/>
      <point x="218" y="214"/>
      <point x="218" y="221" type="curve" smooth="yes"/>
      <point x="218" y="378"/>
      <point x="424" y="377"/>
      <point x="424" y="552" type="curve" smooth="yes"/>
      <point x="424" y="680"/>
      <point x="317" y="748"/>
      <point x="210" y="748" type="curve" smooth="yes"/>
      <point x="123" y="748"/>
      <point x="35" y="702"/>
      <point x="5" y="604" type="curve"/>
      <point x="118" y="566" type="line"/>
      <point x="131" y="616"/>
      <point x="168" y="639"/>
      <point x="205" y="639" type="curve" smooth="yes"/>
      <point x="250" y="639"/>
      <point x="294" y="605"/>
      <point x="294" y="547" type="curve" smooth="yes"/>
      <point x="294" y="431"/>
      <point x="94" y="438"/>
      <point x="94" y="224" type="curve" smooth="yes"/>
      <point x="94" y="215"/>
      <point x="95" y="203"/>
      <point x="96" y="193" type="curve"/>
    </contour>
    <component base="period" xOffset="46"/>
  </outline>
</glyph>
<glyph name="T" format="1">
  <advance width="408"/>
  <unicode hex="0054"/>
  <outline>
    <contour>
      <point x="9" y="676" type="line"/>
      <point x="9" y="639" type="line"/>
      <point x="194" y="639" type="line"/>
      <point x="182" y="651" type="line"/>
      <point x="182" y="0" type="line"/>
      <point x="224" y="0" type="line"/>
      <point x="224" y="651" type="line"/>
      <point x="213" y="639" type="line"/>
      <point x="397" y="639" type="line"/>
      <point x="397" y="676" type="line"/>
    </contour>
    <contour>
      <point x="204" y="338" type="move" name="center"/>
    </contour>
    <contour>
      <point x="204" y="0" type="move" name="bottom"/>
    </contour>
    <contour>
      <point x="204" y="645" type="move" name="top"/>
    </contour>
  </outline>
</glyph>
<glyph name="U" format="1">
  <advance width="587"/>
  <unicode hex="0055"/>
  <outline>
    <contour>
      <point x="433" y="-15"/>
      <point x="539" y="67"/>
      <point x="539" y="258" type="curve" smooth="yes"/>
      <point x="539" y="675" type="line"/>
      <point x="407" y="675" type="line"/>
      <point x="407" y="265" type="line" smooth="yes"/>
      <point x="407" y="143"/>
      <point x="364" y="100"/>
      <point x="292" y="100" type="curve" smooth="yes"/>
      <point x="222" y="100"/>
      <point x="180" y="138"/>
      <point x="180" y="252" type="curve" smooth="yes"/>
      <point x="180" y="675" type="line"/>
      <point x="48" y="675" type="line"/>
      <point x="48" y="257" type="line" smooth="yes"/>
      <point x="48" y="68"/>
      <point x="138" y="-15"/>
      <point x="288" y="-15" type="curve" smooth="yes"/>
    </contour>
    <contour>
      <point x="381" y="10" type="move" name="ogonek"/>
    </contour>
    <contour>
      <point x="294" y="660" type="move" name="top"/>
    </contour>
  </outline>
</glyph>
<glyph name="X" format="1">
  <advance width="569"/>
  <unicode hex="0058"/>
  <outline>
    <contour>
      <point x="564" y="95" type="line"/>
      <point x="536" y="94"/>
      <point x="521" y="100"/>
      <point x="505" y="125" type="curve" smooth="yes"/>
      <point x="329" y="397" type="line"/>
      <point x="163" y="675" type="line"/>
      <point x="10" y="675" type="line"/>
      <point x="252" y="292" type="line"/>
      <point x="392" y="70" type="line" smooth="yes"/>
      <point x="432" y="7"/>
      <point x="469" y="-15"/>
      <point x="519" y="-15" type="curve" smooth="yes"/>
      <point x="534" y="-15"/>
      <point x="551" y="-13"/>
      <point x="569" y="-9" type="curve"/>
    </contour>
    <contour>
      <point x="153" y="0" type="line"/>
      <point x="307" y="276" type="line"/>
      <point x="353" y="308" type="line"/>
      <point x="561" y="675" type="line"/>
      <point x="431" y="675" type="line"/>
      <point x="280" y="416" type="line"/>
      <point x="239" y="384" type="line"/>
      <point x="5" y="0" type="line"/>
    </contour>
  </outline>
</glyph>
<glyph name="Z" format="1">
  <advance width="472"/>
  <unicode hex="005A"/>
  <outline>
    <contour>
      <point x="84" y="40" type="line"/>
      <point x="437" y="640" type="line"/>
      <point x="437" y="676" type="line"/>
      <point x="43" y="676" type="line"/>
      <point x="43" y="637" type="line"/>
      <point x="390" y="637" type="line"/>
      <point x="35" y="37" type="line"/>
      <point x="35" y="0" type="line"/>
      <point x="433" y="0" type="line"/>
      <point x="433" y="40" type="line"/>
    </contour>
    <contour>
      <point x="240" y="645" type="move" name="top"/>
    </contour>
  </outline>
</glyph>
<glyph name="c" format="1">
  <advance width="380"/>
  <unicode hex="0063"/>
  <outline>
    <contour>
      <point x="262" y="-7"/>
      <point x="313" y="4"/>
      <point x="366" y="34" type="curve"/>
      <point x="352" y="64" type="line"/>
      <point x="307" y="39"/>
      <point x="265" y="28"/>
      <point x="229" y="28" type="curve" smooth="yes"/>
      <point x="138" y="28"/>
      <point x="83" y="107"/>
      <point x="83" y="249" type="curve" smooth="yes"/>
      <point x="83" y="384"/>
      <point x="133" y="472"/>
      <point x="222" y="472" type="curve" smooth="yes"/>
      <point x="269" y="472"/>
      <point x="317" y="440"/>
      <point x="343" y="388" type="curve"/>
      <point x="375" y="409" type="line"/>
      <point x="340" y="473"/>
      <point x="284" y="507"/>
      <point x="225" y="507" type="curve" smooth="yes"/>
      <point x="113" y="507"/>
      <point x="40" y="408"/>
      <point x="40" y="250" type="curve" smooth="yes"/>
      <point x="40" y="86"/>
      <point x="110" y="-7"/>
      <point x="221" y="-7" type="curve" smooth="yes"/>
    </contour>
    <contour>
      <point x="228" y="500" type="move" name="top"/>
    </contour>
    <contour>
      <point x="221" y="0" type="move" name="bottom"/>
    </contour>
  </outline>
</glyph>
<glyph name="e" format="1">
  <advance width="433"/>
  <unicode hex="0065"/>
  <outline>
    <contour>
      <point x="290" y="-7"/>
      <point x="338" y="5"/>
      <point x="389" y="29" type="curve"/>
      <point x="376" y="60" type="line"/>
      <point x="332" y="39"/>
      <point x="293" y="29"/>
      <point x="253" y="29" type="curve" smooth="yes"/>
      <point x="151" y="29"/>
      <point x="84" y="106"/>
      <point x="84" y="249" type="curve" smooth="yes"/>
      <point x="84" y="382"/>
      <point x="135" y="472"/>
      <point x="228" y="472" type="curve" smooth="yes"/>
      <point x="330" y="472"/>
      <point x="359" y="374"/>
      <point x="358" y="287" type="curve"/>
      <point x="64" y="286" type="line"/>
      <point x="64" y="251" type="line"/>
      <point x="400" y="251" type="line"/>
      <point x="400" y="271" type="line" smooth="yes"/>
      <point x="400" y="408"/>
      <point x="353" y="507"/>
      <point x="228" y="507" type="curve" smooth="yes"/>
      <point x="111" y="507"/>
      <point x="41" y="400"/>
      <point x="41" y="250" type="curve" smooth="yes"/>
      <point x="41" y="85"/>
      <point x="122" y="-7"/>
      <point x="246" y="-7" type="curve" smooth="yes"/>
    </contour>
    <contour>
      <point x="380" y="5" type="move" name="ogonek"/>
    </contour>
    <contour>
      <point x="245" y="0" type="move" name="bottom"/>
    </contour>
    <contour>
      <point x="236" y="500" type="move" name="top"/>
    </contour>
  </outline>
</glyph>
<glyph name="f" format="1">
  <advance width="303"/>
  <unicode hex="0066"/>
  <outline>
    <contour>
      <point x="146" y="0" type="line"/>
      <point x="146" y="586" type="line" smooth="yes"/>
      <point x="146" y="659"/>
      <point x="173" y="697"/>
      <point x="219" y="697" type="curve" smooth="yes"/>
      <point x="239" y="697"/>
      <point x="263" y="690"/>
      <point x="289" y="675" type="curve"/>
      <point x="306" y="704" type="line"/>
      <point x="277" y="723"/>
      <point x="247" y="732"/>
      <point x="219" y="732" type="curve" smooth="yes"/>
      <point x="154" y="732"/>
      <point x="106" y="685"/>
      <point x="106" y="598" type="curve" smooth="yes"/>
      <point x="106" y="0" type="line"/>
    </contour>
    <contour>
      <point x="288" y="465" type="line"/>
      <point x="288" y="500" type="line"/>
      <point x="30" y="500" type="line"/>
      <point x="30" y="465" type="line"/>
    </contour>
  </outline>
</glyph>
<glyph name="g" format="1">
  <advance width="451"/>
  <unicode hex="0067"/>
  <outline>
    <contour>
      <point x="338" y="242"/>
      <point x="279" y="197"/>
      <point x="222" y="197" type="curve" smooth="yes"/>
      <point x="164" y="197"/>
      <point x="104" y="243"/>
      <point x="104" y="332" type="curve" smooth="yes"/>
      <point x="104" y="427"/>
      <point x="164" y="473"/>
      <point x="221" y="473" type="curve" smooth="yes"/>
      <point x="279" y="473"/>
      <point x="338" y="427"/>
      <point x="338" y="332" type="curve" smooth="yes"/>
    </contour>
    <contour>
      <point x="376" y="449"/>
      <point x="300" y="507"/>
      <point x="222" y="507" type="curve" smooth="yes"/>
      <point x="145" y="507"/>
      <point x="66" y="449"/>
      <point x="66" y="332" type="curve" smooth="yes"/>
      <point x="66" y="218"/>
      <point x="142" y="163"/>
      <point x="221" y="163" type="curve" smooth="yes"/>
      <point x="298" y="163"/>
      <point x="376" y="219"/>
      <point x="376" y="332" type="curve" smooth="yes"/>
    </contour>
    <contour>
      <point x="221" y="500" type="line"/>
      <point x="301" y="473" type="line"/>
      <point x="421" y="472" type="line"/>
      <point x="421" y="507" type="line"/>
    </contour>
    <contour>
      <point x="82" y="22"/>
      <point x="40" y="-20"/>
      <point x="40" y="-79" type="curve" smooth="yes"/>
      <point x="40" y="-159"/>
      <point x="109" y="-212"/>
      <point x="217" y="-212" type="curve" smooth="yes"/>
      <point x="337" y="-212"/>
      <point x="418" y="-151"/>
      <point x="418" y="-57" type="curve" smooth="yes"/>
      <point x="418" y="21"/>
      <point x="356" y="71"/>
      <point x="252" y="70" type="curve" smooth="yes"/>
      <point x="164" y="69" type="line" smooth="yes"/>
      <point x="133" y="69"/>
      <point x="114" y="91"/>
      <point x="114" y="115" type="curve" smooth="yes"/>
      <point x="114" y="139"/>
      <point x="133" y="165"/>
      <point x="174" y="174" type="curve"/>
      <point x="159" y="195" type="line"/>
      <point x="103" y="182"/>
      <point x="77" y="144"/>
      <point x="77" y="109" type="curve" smooth="yes"/>
      <point x="77" y="70"/>
      <point x="111" y="33"/>
      <point x="173" y="35" type="curve" smooth="yes"/>
      <point x="252" y="37" type="line" smooth="yes"/>
      <point x="330" y="39"/>
      <point x="378" y="-1"/>
      <point x="378" y="-57" type="curve" smooth="yes"/>
      <point x="378" y="-133"/>
      <point x="316" y="-177"/>
      <point x="217" y="-177" type="curve" smooth="yes"/>
      <point x="137" y="-177"/>
      <point x="80" y="-140"/>
      <point x="80" y="-79" type="curve" smooth="yes"/>
      <point x="80" y="-32"/>
      <point x="112" y="8"/>
      <point x="170" y="39" type="curve"/>
      <point x="152" y="60" type="line"/>
    </contour>
    <contour>
      <point x="228" y="500" type="move" name="top"/>
    </contour>
  </outline>
</glyph>
<glyph name="l" format="1">
  <advance width="230"/>
  <unicode hex="006C"/>
  <outline>
    <contour>
      <point x="85" y="25"/>
      <point x="118" y="-6"/>
      <point x="163" y="-6" type="curve" smooth="yes"/>
      <point x="180" y="-6"/>
      <point x="197" y="-2"/>
      <point x="216" y="6" type="curve"/>
      <point x="205" y="36" type="line"/>
      <point x="191" y="30"/>
      <point x="179" y="27"/>
      <point x="168" y="27" type="curve" smooth="yes"/>
      <point x="140" y="27"/>
      <point x="125" y="48"/>
      <point x="125" y="87" type="curve" smooth="yes"/>
      <point x="125" y="725" type="line"/>
      <point x="85" y="725" type="line"/>
      <point x="85" y="82" type="line" smooth="yes"/>
    </contour>
    <contour>
      <point x="108" y="685" type="move" name="top"/>
    </contour>
    <contour>
      <point x="115" y="0" type="move" name="bottom"/>
    </contour>
    <contour>
      <point x="210" y="500" type="move" name="topright"/>
    </contour>
  </outline>
</glyph>
<glyph name="n" format="1">
  <advance width="497"/>
  <unicode hex="006E"/>
  <outline>
    <contour>
      <point x="455" y="26" type="line"/>
      <point x="417" y="22"/>
      <point x="408" y="39"/>
      <point x="408" y="89" type="curve" smooth="yes"/>
      <point x="408" y="344" type="line" smooth="yes"/>
      <point x="408" y="448"/>
      <point x="355" y="507"/>
      <point x="263" y="507" type="curve" smooth="yes"/>
      <point x="193" y="507"/>
      <point x="135" y="465"/>
      <point x="110" y="372" type="curve"/>
      <point x="123" y="372" type="line"/>
      <point x="122" y="500" type="line"/>
      <point x="85" y="500" type="line"/>
      <point x="85" y="0" type="line"/>
      <point x="125" y="0" type="line"/>
      <point x="125" y="291" type="line" smooth="yes"/>
      <point x="125" y="410"/>
      <point x="190" y="474"/>
      <point x="261" y="474" type="curve" smooth="yes"/>
      <point x="326" y="474"/>
      <point x="368" y="427"/>
      <point x="368" y="338" type="curve" smooth="yes"/>
      <point x="368" y="83" type="line" smooth="yes"/>
      <point x="368" y="24"/>
      <point x="386" y="-7"/>
      <point x="436" y="-7" type="curve" smooth="yes"/>
      <point x="443" y="-7"/>
      <point x="450" y="-6"/>
      <point x="457" y="-5" type="curve"/>
    </contour>
    <contour>
      <point x="249" y="500" type="move" name="top"/>
    </contour>
    <contour>
      <point x="249" y="0" type="move" name="bottom"/>
    </contour>
  </outline>
</glyph>
<glyph name="q" format="1">
  <advance width="478"/>
  <unicode hex="0071"/>
  <outline>
    <contour>
      <point x="118" y="507"/>
      <point x="38" y="389"/>
      <point x="38" y="227" type="curve" smooth="yes"/>
      <point x="38" y="78"/>
      <point x="115" y="-7"/>
      <point x="211" y="-7" type="curve" smooth="yes"/>
      <point x="281" y="-7"/>
      <point x="341" y="39"/>
      <point x="372" y="131" type="curve"/>
      <point x="353" y="130" type="line"/>
      <point x="353" y="-225" type="line"/>
      <point x="393" y="-225" type="line"/>
      <point x="393" y="466" type="line"/>
      <point x="358" y="487"/>
      <point x="298" y="507"/>
      <point x="239" y="507" type="curve" smooth="yes"/>
    </contour>
    <contour>
      <point x="276" y="472"/>
      <point x="319" y="462"/>
      <point x="353" y="444" type="curve"/>
      <point x="353" y="208" type="line" smooth="yes"/>
      <point x="353" y="91"/>
      <point x="286" y="28"/>
      <point x="217" y="28" type="curve" smooth="yes"/>
      <point x="150" y="28"/>
      <point x="81" y="90"/>
      <point x="81" y="227" type="curve" smooth="yes"/>
      <point x="81" y="374"/>
      <point x="142" y="472"/>
      <point x="245" y="472" type="curve" smooth="yes"/>
    </contour>
  </outline>
</glyph>
<glyph name="r" format="1">
  <advance width="287"/>
  <unicode hex="0072"/>
  <outline>
    <contour>
      <point x="125" y="0" type="line"/>
      <point x="125" y="299" type="line" smooth="yes"/>
      <point x="125" y="396"/>
      <point x="173" y="471"/>
      <point x="245" y="471" type="curve" smooth="yes"/>
      <point x="255" y="471"/>
      <point x="267" y="469"/>
      <point x="279" y="466" type="curve"/>
      <point x="284" y="501" type="line"/>
      <point x="272" y="505"/>
      <point x="260" y="507"/>
      <point x="249" y="507" type="curve" smooth="yes"/>
      <point x="185" y="507"/>
      <point x="127" y="455"/>
      <point x="110" y="372" type="curve"/>
      <point x="123" y="372" type="line"/>
      <point x="122" y="500" type="line"/>
      <point x="85" y="500" type="line"/>
      <point x="85" y="0" type="line"/>
    </contour>
    <contour>
      <point x="151" y="500" type="move" name="top"/>
    </contour>
    <contour>
      <point x="155" y="0" type="move" name="bottom"/>
    </contour>
  </outline>
</glyph>
<glyph name="w" format="1">
  <advance width="677"/>
  <unicode hex="0077"/>
  <outline>
    <contour>
      <point x="192" y="0" type="line"/>
      <point x="346" y="463" type="line"/>
      <point x="331" y="463" type="line"/>
      <point x="480" y="0" type="line"/>
      <point x="506" y="0" type="line"/>
      <point x="672" y="500" type="line"/>
      <point x="633" y="500" type="line"/>
      <point x="491" y="52" type="line"/>
      <point x="501" y="52" type="line"/>
      <point x="359" y="500" type="line"/>
      <point x="319" y="497" type="line"/>
      <point x="177" y="52" type="line"/>
      <point x="187" y="52" type="line"/>
      <point x="46" y="500" type="line"/>
      <point x="5" y="500" type="line"/>
      <point x="166" y="0" type="line"/>
    </contour>
  </outline>
</glyph>
<glyph name="x" format="1">
  <advance width="413"/>
  <unicode hex="0078"/>
  <outline>
    <contour>
      <point x="400" y="26" type="line"/>
      <point x="399" y="26"/>
      <point x="398" y="26"/>
      <point x="397" y="26" type="curve" smooth="yes"/>
      <point x="385" y="26"/>
      <point x="378" y="30"/>
      <point x="363" y="52" type="curve" smooth="yes"/>
      <point x="220" y="264" type="line"/>
      <point x="66" y="500" type="line"/>
      <point x="16" y="500" type="line"/>
      <point x="192" y="240" type="line"/>
      <point x="327" y="35" type="line" smooth="yes"/>
      <point x="348" y="3"/>
      <point x="363" y="-7"/>
      <point x="384" y="-7" type="curve" smooth="yes"/>
      <point x="390" y="-7"/>
      <point x="396" y="-6"/>
      <point x="403" y="-5" type="curve"/>
    </contour>
    <contour>
      <point x="56" y="0" type="line"/>
      <point x="214" y="232" type="line"/>
      <point x="224" y="241" type="line"/>
      <point x="397" y="500" type="line"/>
      <point x="354" y="500" type="line"/>
      <point x="201" y="269" type="line"/>
      <point x="190" y="260" type="line"/>
      <point x="13" y="0" type="line"/>
    </contour>
  </outline>
</glyph>
<glyph name="z" format="1">
  <advance width="455"/>
  <unicode hex="007A"/>
  <outline>
    <contour>
      <point x="101" y="35" type="line"/>
      <point x="410" y="475" type="line"/>
      <point x="410" y="500" type="line"/>
      <point x="57" y="500" type="line"/>
      <point x="57" y="465" type="line"/>
      <point x="359" y="465" type="line"/>
      <point x="47" y="25" type="line"/>
      <point x="47" y="0" type="line"/>
      <point x="404" y="0" type="line"/>
      <point x="404" y="35" type="line"/>
    </contour>
    <contour>
      <point x="238" y="500" type="move" name="top"/>
    </contour>
  </outline>
</glyph>
<glyph name="sterling" format="1">
  <advance width="475"/>
  <unicode hex="00A3"/>
  <outline>
    <contour>
      <point x="450" y="0" type="line"/>
      <point x="450" y="110" type="line"/>
      <point x="209" y="110" type="line"/>
      <point x="229" y="90" type="line"/>
      <point x="229" y="463" type="line" smooth="yes"/>
      <point x="229" y="545"/>
      <point x="270" y="576"/>
      <point x="323" y="576" type="curve" smooth="yes"/>
      <point x="353" y="576"/>
      <point x="386" y="566"/>
      <point x="417" y="549" type="curve"/>
      <point x="465" y="643" type="line"/>
      <point x="418" y="673"/>
      <point x="360" y="689"/>
      <point x="305" y="689" type="curve" smooth="yes"/>
      <point x="197" y="689"/>
      <point x="97" y="626"/>
      <point x="97" y="480" type="curve" smooth="yes"/>
      <point x="97" y="90" type="line"/>
      <point x="113" y="110" type="line"/>
      <point x="32" y="110" type="line"/>
      <point x="32" y="0" type="line"/>
    </contour>
    <contour>
      <point x="394" y="293" type="line"/>
      <point x="394" y="396" type="line"/>
      <point x="30" y="396" type="line"/>
      <point x="30" y="293" type="line"/>
    </contour>
  </outline>
</glyph>
<glyph name="dieresis" format="1">
  <advance width="372"/>
  <unicode hex="00A8"/>
  <outline>
    <contour>
      <point x="123" y="607"/>
      <point x="135" y="624"/>
      <point x="135" y="644" type="curve" smooth="yes"/>
      <point x="135" y="664"/>
      <point x="123" y="681"/>
      <point x="103" y="681" type="curve" smooth="yes"/>
      <point x="82" y="681"/>
      <point x="70" y="664"/>
      <point x="70" y="644" type="curve" smooth="yes"/>
      <point x="70" y="624"/>
      <point x="82" y="607"/>
      <point x="103" y="607" type="curve" smooth="yes"/>
    </contour>
    <contour>
      <point x="290" y="607"/>
      <point x="302" y="624"/>
      <point x="302" y="644" type="curve" smooth="yes"/>
      <point x="302" y="664"/>
      <point x="290" y="681"/>
      <point x="269" y="681" type="curve" smooth="yes"/>
      <point x="249" y="681"/>
      <point x="237" y="664"/>
      <point x="237" y="644" type="curve" smooth="yes"/>
      <point x="237" y="624"/>
      <point x="249" y="607"/>
      <point x="269" y="607" type="curve" smooth="yes"/>
    </contour>
    <contour>
      <point x="186" y="500" type="move" name="_top"/>
    </contour>
  </outline>
</glyph>
<glyph name="guillemotleft" format="1">
  <advance width="529"/>
  <unicode hex="00AB"/>
  <outline>
    <contour>
      <point x="256" y="414" type="line"/>
      <point x="164" y="477" type="line"/>
      <point x="25" y="265" type="line"/>
      <point x="161" y="50" type="line"/>
      <point x="254" y="114" type="line"/>
      <point x="161" y="266" type="line"/>
    </contour>
    <contour>
      <point x="488" y="413" type="line"/>
      <point x="398" y="477" type="line"/>
      <point x="249" y="265" type="line"/>
      <point x="395" y="50" type="line"/>
      <point x="486" y="115" type="line"/>
      <point x="385" y="266" type="line"/>
    </contour>
  </outline>
</glyph>
<glyph name="registered" format="1">
  <advance width="759"/>
  <unicode hex="00AE"/>
  <outline>
    <contour>
      <point x="298" y="107" type="line"/>
      <point x="298" y="558" type="line"/>
      <point x="289" y="545" type="line"/>
      <point x="313" y="545"/>
      <point x="339" y="547"/>
      <point x="364" y="547" type="curve" smooth="yes"/>
      <point x="452" y="547"/>
      <point x="485" y="514"/>
      <point x="485" y="450" type="curve" smooth="yes"/>
      <point x="485" y="383"/>
      <point x="440" y="348"/>
      <point x="363" y="348" type="curve" smooth="yes"/>
      <point x="283" y="348" type="line"/>
      <point x="283" y="317" type="line"/>
      <point x="369" y="317" type="line" smooth="yes"/>
      <point x="473" y="317"/>
      <point x="525" y="374"/>
      <point x="525" y="454" type="curve" smooth="yes"/>
      <point x="525" y="537"/>
      <point x="475" y="578"/>
      <point x="369" y="578" type="curve" smooth="yes"/>
      <point x="337" y="578"/>
      <point x="293" y="578"/>
      <point x="260" y="576" type="curve"/>
      <point x="260" y="107" type="line"/>
    </contour>
    <contour>
      <point x="478" y="132" type="line" smooth="yes"/>
      <point x="487" y="114"/>
      <point x="500" y="102"/>
      <point x="522" y="102" type="curve" smooth="yes"/>
      <point x="527" y="102"/>
      <point x="533" y="102"/>
      <point x="540" y="104" type="curve"/>
      <point x="538" y="128" type="line"/>
      <point x="537" y="128"/>
      <point x="534" y="128"/>
      <point x="533" y="128" type="curve" smooth="yes"/>
      <point x="523" y="128"/>
      <point x="519" y="131"/>
      <point x="512" y="146" type="curve" smooth="yes"/>
      <point x="416" y="336" type="line"/>
      <point x="377" y="332" type="line"/>
    </contour>
    <contour>
      <point x="571" y="-1"/>
      <point x="712" y="150"/>
      <point x="712" y="347" type="curve" smooth="yes"/>
      <point x="712" y="541"/>
      <point x="571" y="691"/>
      <point x="380" y="690" type="curve" smooth="yes"/>
      <point x="188" y="690"/>
      <point x="45" y="541"/>
      <point x="45" y="346" type="curve" smooth="yes"/>
      <point x="45" y="149"/>
      <point x="186" y="0"/>
      <point x="379" y="0" type="curve" smooth="yes"/>
    </contour>
    <contour>
      <point x="211" y="34"/>
      <point x="87" y="169"/>
      <point x="87" y="347" type="curve" smooth="yes"/>
      <point x="87" y="523"/>
      <point x="211" y="656"/>
      <point x="380" y="656" type="curve" smooth="yes"/>
      <point x="546" y="657"/>
      <point x="669" y="521"/>
      <point x="670" y="346" type="curve" smooth="yes"/>
      <point x="670" y="168"/>
      <point x="548" y="33"/>
      <point x="380" y="34" type="curve" smooth="yes"/>
    </contour>
  </outline>
</glyph>
<glyph name="acute" format="1">
  <advance width="335"/>
  <unicode hex="00B4"/>
  <outline>
    <contour>
      <point x="265" y="678" type="line"/>
      <point x="235" y="714" type="line"/>
      <point x="99" y="608" type="line"/>
      <point x="120" y="580" type="line"/>
    </contour>
    <contour>
      <point x="154" y="500" type="move" name="_top"/>
    </contour>
  </outline>
</glyph>
<glyph name="uni00B5" format="1">
  <advance width="502"/>
  <unicode hex="00B5"/>
  <outline>
    <contour>
      <point x="125" y="-205" type="line"/>
      <point x="123" y="60" type="line"/>
      <point x="112" y="60" type="line"/>
      <point x="136" y="18"/>
      <point x="174" y="-7"/>
      <point x="233" y="-7" type="curve" smooth="yes"/>
      <point x="298" y="-7"/>
      <point x="354" y="31"/>
      <point x="382" y="107" type="curve"/>
      <point x="373" y="107" type="line"/>
      <point x="373" y="27"/>
      <point x="393" y="-7"/>
      <point x="456" y="-7" type="curve" smooth="yes"/>
      <point x="464" y="-7"/>
      <point x="472" y="-6"/>
      <point x="482" y="-5" type="curve"/>
      <point x="480" y="26" type="line"/>
      <point x="474" y="25"/>
      <point x="469" y="25"/>
      <point x="464" y="25" type="curve" smooth="yes"/>
      <point x="423" y="25"/>
      <point x="413" y="50"/>
      <point x="413" y="103" type="curve"/>
      <point x="413" y="500" type="line"/>
      <point x="373" y="500" type="line"/>
      <point x="373" y="206" type="line" smooth="yes"/>
      <point x="373" y="89"/>
      <point x="307" y="25"/>
      <point x="235" y="25" type="curve" smooth="yes"/>
      <point x="169" y="25"/>
      <point x="125" y="72"/>
      <point x="125" y="159" type="curve" smooth="yes"/>
      <point x="125" y="500" type="line"/>
      <point x="85" y="500" type="line"/>
      <point x="85" y="-205" type="line"/>
    </contour>
  </outline>
</glyph>
<glyph name="paragraph" format="1">
  <advance width="576"/>
  <unicode hex="00B6"/>
  <outline>
    <contour>
      <point x="321" y="0" type="line"/>
      <point x="321" y="675" type="line"/>
      <point x="199" y="675" type="line" smooth="yes"/>
      <point x="79" y="672"/>
      <point x="20" y="597"/>
      <point x="20" y="511" type="curve" smooth="yes"/>
      <point x="20" y="427"/>
      <point x="81" y="345"/>
      <point x="207" y="342" type="curve"/>
      <point x="199" y="350" type="line"/>
      <point x="199" y="0" type="line"/>
    </contour>
    <contour>
      <point x="511" y="0" type="line"/>
      <point x="511" y="675" type="line"/>
      <point x="389" y="675" type="line"/>
      <point x="389" y="0" type="line"/>
    </contour>
  </outline>
</glyph>
<glyph name="onesuperior" format="1">
  <advance width="307"/>
  <unicode hex="00B9"/>
  <outline>
    <contour>
      <point x="42" y="590" type="line"/>
      <point x="30" y="622" type="line"/>
      <point x="157" y="675" type="line"/>
      <point x="186" y="675" type="line"/>
      <point x="186" y="270" type="line"/>
      <point x="148" y="270" type="line"/>
      <point x="148" y="652" type="line"/>
      <point x="162" y="641" type="line"/>
    </contour>
    <contour>
      <point x="61" y="301" type="line"/>
      <point x="247" y="301" type="line"/>
      <point x="247" y="270" type="line"/>
      <point x="61" y="270" type="line"/>
    </contour>
  </outline>
</glyph>
<glyph name="Oslash" format="1">
  <advance width="584"/>
  <unicode hex="00D8"/>
  <outline>
    <contour>
      <point x="420" y="743" type="line"/>
      <point x="133" y="-58" type="line"/>
      <point x="167" y="-69" type="line"/>
      <point x="453" y="733" type="line"/>
    </contour>
    <component base="O"/>
  </outline>
</glyph>
<glyph name="thorn" format="1">
  <advance width="478"/>
  <unicode hex="00FE"/>
  <outline>
    <contour>
      <point x="125" y="-205" type="line"/>
      <point x="125" y="294" type="line" smooth="yes"/>
      <point x="125" y="409"/>
      <point x="192" y="472"/>
      <point x="261" y="472" type="curve" smooth="yes"/>
      <point x="328" y="472"/>
      <point x="397" y="408"/>
      <point x="397" y="273" type="curve" smooth="yes"/>
      <point x="397" y="128"/>
      <point x="336" y="28"/>
      <point x="233" y="28" type="curve" smooth="yes"/>
      <point x="202" y="28"/>
      <point x="157" y="40"/>
      <point x="123" y="58" type="curve"/>
      <point x="85" y="34" type="line"/>
      <point x="120" y="13"/>
      <point x="180" y="-7"/>
      <point x="237" y="-7" type="curve" smooth="yes"/>
      <point x="360" y="-7"/>
      <point x="440" y="111"/>
      <point x="440" y="273" type="curve" smooth="yes"/>
      <point x="440" y="422"/>
      <point x="363" y="507"/>
      <point x="267" y="507" type="curve" smooth="yes"/>
      <point x="194" y="507"/>
      <point x="138" y="461"/>
      <point x="105" y="369" type="curve"/>
      <point x="125" y="370" type="line"/>
      <point x="125" y="725" type="line"/>
      <point x="85" y="725" type="line"/>
      <point x="85" y="-205" type="line"/>
    </contour>
  </outline>
</glyph>
<glyph name="dotlessi" format="1">
  <advance width="210"/>
  <unicode hex="0131"/>
  <outline>
    <contour>
      <point x="124" y="0" type="line"/>
      <point x="124" y="500" type="line"/>
      <point x="85" y="500" type="line"/>
      <point x="85" y="0" type="line"/>
    </contour>
    <contour>
      <point x="124" y="5" type="move" name="ogonek"/>
    </contour>
    <contour>
      <point x="105" y="500" type="move" name="top"/>
    </contour>
  </outline>
</glyph>
<glyph name="Lslash" format="1">
  <advance width="413"/>
  <unicode hex="0141"/>
  <outline>
    <contour>
      <point x="261" y="410" type="line"/>
      <point x="-18" y="293" type="line"/>
      <point x="-7" y="263" type="line"/>
      <point x="273" y="380" type="line"/>
    </contour>
    <component base="L"/>
  </outline>
</glyph>
<glyph name="uni0163" format="1">
  <advance width="308"/>
  <unicode hex="0163"/>
  <outline>
    <contour>
      <point x="130" y="-187"/>
      <point x="142" y="-188"/>
      <point x="154" y="-188" type="curve" smooth="yes"/>
      <point x="226" y="-188"/>
      <point x="264" y="-145"/>
      <point x="264" y="-98" type="curve" smooth="yes"/>
      <point x="264" y="-60"/>
      <point x="240" y="-19"/>
      <point x="189" y="5" type="curve"/>
      <point x="160" y="5" type="line"/>
      <point x="207" y="-23"/>
      <point x="230" y="-60"/>
      <point x="230" y="-92" type="curve" smooth="yes"/>
      <point x="230" y="-127"/>
      <point x="203" y="-154"/>
      <point x="148" y="-154" type="curve" smooth="yes"/>
      <point x="138" y="-154"/>
      <point x="129" y="-153"/>
      <point x="118" y="-151" type="curve"/>
      <point x="116" y="-184" type="line"/>
    </contour>
    <component base="t"/>
  </outline>
</glyph>
<glyph name="tml_Ee" format="1">
  <advance width="646"/>
  <unicode hex="0B8F"/>
  <note>
	tml_Ee
  </note>
  <outline>
    <contour>
      <point x="416" y="48" type="line"/>
      <point x="194" y="-161" type="line"/>
      <point x="266" y="-236" type="line"/>
      <point x="521" y="0" type="line"/>
      <point x="521" y="450" type="line"/>
      <point x="621" y="450" type="line"/>
      <point x="621" y="545" type="line"/>
      <point x="283" y="545" type="line"/>
      <point x="277" y="545" type="line"/>
      <point x="277" y="545"/>
      <point x="277" y="545"/>
      <point x="277" y="545" type="curve"/>
      <point x="128" y="541"/>
      <point x="40" y="428"/>
      <point x="40" y="239" type="curve" smooth="yes"/>
      <point x="40" y="87"/>
      <point x="101" y="-24"/>
      <point x="203" y="-24" type="curve" smooth="yes"/>
      <point x="298" y="-24"/>
      <point x="355" y="52"/>
      <point x="355" y="170" type="curve" smooth="yes"/>
      <point x="355" y="307"/>
      <point x="276" y="362"/>
      <point x="208" y="362" type="curve" smooth="yes"/>
      <point x="187" y="362"/>
      <point x="169" y="357"/>
      <point x="154" y="348" type="curve"/>
      <point x="175" y="409"/>
      <point x="217" y="450"/>
      <point x="283" y="450" type="curve" smooth="yes"/>
      <point x="416" y="450" type="line"/>
    </contour>
    <contour>
      <point x="139" y="219"/>
      <point x="167" y="264"/>
      <point x="203" y="264" type="curve" smooth="yes"/>
      <point x="229" y="264"/>
      <point x="256" y="232"/>
      <point x="256" y="173" type="curve" smooth="yes"/>
      <point x="256" y="135"/>
      <point x="248" y="72"/>
      <point x="203" y="72" type="curve" smooth="yes"/>
      <point x="174" y="72"/>
      <point x="156" y="104"/>
      <point x="147" y="152" type="curve"/>
    </contour>
  </outline>
</glyph>
<glyph name="si_Ca" format="1">
  <advance width="545"/>
  <unicode hex="0DA0"/>
  <note>
	si_Ca
  </note>
  <outline>
    <contour>
      <point x="154" y="271"/>
      <point x="171" y="306"/>
      <point x="203" y="306" type="curve" smooth="yes"/>
      <point x="329" y="306" type="line"/>
      <point x="333" y="325"/>
      <point x="336" y="351"/>
      <point x="336" y="366" type="curve" smooth="yes"/>
      <point x="336" y="475"/>
      <point x="265" y="532"/>
      <point x="188" y="532" type="curve" smooth="yes"/>
      <point x="114" y="532"/>
      <point x="64" y="481"/>
      <point x="64" y="409" type="curve" smooth="yes"/>
      <point x="64" y="404"/>
      <point x="64" y="398"/>
      <point x="65" y="393" type="curve"/>
      <point x="30" y="393" type="line"/>
      <point x="30" y="306" type="line"/>
      <point x="61" y="306" type="line"/>
      <point x="50" y="286"/>
      <point x="41" y="255"/>
      <point x="37" y="223" type="curve" smooth="yes"/>
      <point x="36" y="216"/>
      <point x="36" y="209"/>
      <point x="36" y="201" type="curve" smooth="yes"/>
      <point x="36" y="113"/>
      <point x="91" y="0"/>
      <point x="255" y="0" type="curve" smooth="yes"/>
      <point x="435" y="0"/>
      <point x="516" y="118"/>
      <point x="516" y="354" type="curve" smooth="yes"/>
      <point x="516" y="676"/>
      <point x="385" y="755"/>
      <point x="246" y="755" type="curve" smooth="yes"/>
      <point x="159" y="755"/>
      <point x="74" y="708"/>
      <point x="38" y="613" type="curve"/>
      <point x="147" y="577" type="line"/>
      <point x="164" y="619"/>
      <point x="205" y="640"/>
      <point x="246" y="640" type="curve" smooth="yes"/>
      <point x="329" y="640"/>
      <point x="401" y="583"/>
      <point x="401" y="354" type="curve" smooth="yes"/>
      <point x="401" y="195"/>
      <point x="359" y="115"/>
      <point x="255" y="115" type="curve" smooth="yes"/>
      <point x="174" y="115"/>
      <point x="145" y="166"/>
      <point x="145" y="214" type="curve" smooth="yes"/>
      <point x="145" y="222"/>
      <point x="145" y="230"/>
      <point x="147" y="237" type="curve" smooth="yes"/>
    </contour>
    <contour>
      <point x="156" y="392" type="line"/>
      <point x="155" y="396"/>
      <point x="154" y="400"/>
      <point x="154" y="405" type="curve" smooth="yes"/>
      <point x="154" y="426"/>
      <point x="163" y="444"/>
      <point x="188" y="444" type="curve" smooth="yes"/>
      <point x="222" y="444"/>
      <point x="238" y="419"/>
      <point x="240" y="391" type="curve"/>
    </contour>
  </outline>
</glyph>
<glyph name="si_Ttha" format="1">
  <advance width="589"/>
  <unicode hex="0DA8"/>
  <note>
	si_Ttha
  </note>
  <outline>
    <contour>
      <point x="158" y="336"/>
      <point x="177" y="357"/>
      <point x="205" y="357" type="curve" smooth="yes"/>
      <point x="216" y="357"/>
      <point x="229" y="354"/>
      <point x="243" y="346" type="curve"/>
      <point x="281" y="446" type="line"/>
      <point x="253" y="466"/>
      <point x="224" y="475"/>
      <point x="196" y="475" type="curve" smooth="yes"/>
      <point x="129" y="475"/>
      <point x="69" y="422"/>
      <point x="44" y="341" type="curve" smooth="yes"/>
      <point x="36" y="316"/>
      <point x="30" y="274"/>
      <point x="30" y="229" type="curve" smooth="yes"/>
      <point x="30" y="125"/>
      <point x="62" y="0"/>
      <point x="179" y="0" type="curve" smooth="yes"/>
      <point x="232" y="0"/>
      <point x="271" y="32"/>
      <point x="287" y="79" type="curve"/>
      <point x="302" y="33"/>
      <point x="340" y="0"/>
      <point x="396" y="0" type="curve" smooth="yes"/>
      <point x="554" y="0"/>
      <point x="559" y="182"/>
      <point x="559" y="293" type="curve" smooth="yes"/>
      <point x="559" y="410"/>
      <point x="540" y="515"/>
      <point x="516" y="588" type="curve" smooth="yes"/>
      <point x="484" y="686"/>
      <point x="430" y="765"/>
      <point x="351" y="817" type="curve"/>
      <point x="279" y="733" type="line"/>
      <point x="291" y="724"/>
      <point x="295" y="717"/>
      <point x="295" y="710" type="curve" smooth="yes"/>
      <point x="295" y="688"/>
      <point x="254" y="667"/>
      <point x="254" y="611" type="curve" smooth="yes"/>
      <point x="254" y="525"/>
      <point x="351" y="463"/>
      <point x="429" y="461" type="curve"/>
      <point x="438" y="409"/>
      <point x="444" y="350"/>
      <point x="444" y="293" type="curve" smooth="yes"/>
      <point x="444" y="240"/>
      <point x="444" y="115"/>
      <point x="396" y="115" type="curve" smooth="yes"/>
      <point x="353" y="115"/>
      <point x="337" y="177"/>
      <point x="337" y="250" type="curve"/>
      <point x="241" y="250" type="line"/>
      <point x="241" y="181"/>
      <point x="227" y="114"/>
      <point x="187" y="114" type="curve" smooth="yes"/>
      <point x="184" y="114"/>
      <point x="182" y="114"/>
      <point x="179" y="115" type="curve" smooth="yes"/>
      <point x="149" y="121"/>
      <point x="140" y="177"/>
      <point x="140" y="228" type="curve" smooth="yes"/>
      <point x="140" y="260"/>
      <point x="143" y="289"/>
      <point x="148" y="304" type="curve" smooth="yes"/>
    </contour>
    <contour>
      <point x="381" y="623"/>
      <point x="395" y="592"/>
      <point x="406" y="558" type="curve"/>
      <point x="361" y="563"/>
      <point x="341" y="590"/>
      <point x="341" y="614" type="curve" smooth="yes"/>
      <point x="341" y="629"/>
      <point x="349" y="643"/>
      <point x="363" y="651" type="curve"/>
    </contour>
  </outline>
</glyph>
<glyph name="si_Dda" format="1">
  <advance width="590"/>
  <unicode hex="0DA9"/>
  <note>
	si_Dda
  </note>
  <outline>
    <contour>
      <point x="445" y="240"/>
      <point x="445" y="115"/>
      <point x="397" y="115" type="curve" smooth="yes"/>
      <point x="354" y="115"/>
      <point x="339" y="177"/>
      <point x="339" y="250" type="curve"/>
      <point x="243" y="250" type="line"/>
      <point x="243" y="177"/>
      <point x="227" y="115"/>
      <point x="180" y="115" type="curve" smooth="yes"/>
      <point x="150" y="115"/>
      <point x="143" y="157"/>
      <point x="143" y="193" type="curve" smooth="yes"/>
      <point x="143" y="245"/>
      <point x="162" y="304"/>
      <point x="203" y="304" type="curve" smooth="yes"/>
      <point x="353" y="304" type="line"/>
      <point x="357" y="323"/>
      <point x="360" y="349"/>
      <point x="360" y="364" type="curve" smooth="yes"/>
      <point x="360" y="473"/>
      <point x="289" y="530"/>
      <point x="212" y="530" type="curve" smooth="yes"/>
      <point x="138" y="530"/>
      <point x="86" y="484"/>
      <point x="86" y="412" type="curve" smooth="yes"/>
      <point x="86" y="405"/>
      <point x="87" y="398"/>
      <point x="88" y="390" type="curve"/>
      <point x="30" y="391" type="line"/>
      <point x="30" y="306" type="line"/>
      <point x="61" y="306" type="line"/>
      <point x="47" y="280"/>
      <point x="36" y="234"/>
      <point x="36" y="193" type="curve" smooth="yes"/>
      <point x="36" y="105"/>
      <point x="64" y="0"/>
      <point x="180" y="0" type="curve" smooth="yes"/>
      <point x="233" y="0"/>
      <point x="272" y="32"/>
      <point x="288" y="79" type="curve"/>
      <point x="303" y="33"/>
      <point x="341" y="0"/>
      <point x="397" y="0" type="curve" smooth="yes"/>
      <point x="555" y="0"/>
      <point x="560" y="182"/>
      <point x="560" y="293" type="curve" smooth="yes"/>
      <point x="560" y="599"/>
      <point x="458" y="755"/>
      <point x="257" y="755" type="curve" smooth="yes"/>
      <point x="170" y="755"/>
      <point x="86" y="708"/>
      <point x="50" y="613" type="curve"/>
      <point x="159" y="577" type="line"/>
      <point x="176" y="619"/>
      <point x="216" y="640"/>
      <point x="257" y="640" type="curve" smooth="yes"/>
      <point x="382" y="640"/>
      <point x="445" y="523"/>
      <point x="445" y="293" type="curve" smooth="yes"/>
    </contour>
    <contour>
      <point x="180" y="389" type="line"/>
      <point x="179" y="394"/>
      <point x="178" y="399"/>
      <point x="178" y="403" type="curve" smooth="yes"/>
      <point x="178" y="424"/>
      <point x="187" y="442"/>
      <point x="212" y="442" type="curve" smooth="yes"/>
      <point x="246" y="442"/>
      <point x="263" y="416"/>
      <point x="264" y="389" type="curve"/>
    </contour>
  </outline>
</glyph>
<glyph name="si_Dha" format="1">
  <advance width="589"/>
  <unicode hex="0DB0"/>
  <note>
	si_Dha
  </note>
  <outline>
    <contour>
      <point x="559" y="599"/>
      <point x="456" y="755"/>
      <point x="255" y="755" type="curve" smooth="yes"/>
      <point x="168" y="755"/>
      <point x="84" y="708"/>
      <point x="48" y="613" type="curve"/>
      <point x="157" y="577" type="line"/>
      <point x="174" y="619"/>
      <point x="214" y="640"/>
      <point x="255" y="640" type="curve" smooth="yes"/>
      <point x="380" y="640"/>
      <point x="444" y="523"/>
      <point x="444" y="293" type="curve" smooth="yes"/>
      <point x="444" y="240"/>
      <point x="444" y="115"/>
      <point x="396" y="115" type="curve" smooth="yes"/>
      <point x="353" y="115"/>
      <point x="337" y="177"/>
      <point x="337" y="250" type="curve"/>
      <point x="241" y="250" type="line"/>
      <point x="241" y="181"/>
      <point x="227" y="114"/>
      <point x="187" y="114" type="curve" smooth="yes"/>
      <point x="184" y="114"/>
      <point x="182" y="114"/>
      <point x="179" y="115" type="curve" smooth="yes"/>
      <point x="149" y="121"/>
      <point x="140" y="177"/>
      <point x="140" y="228" type="curve" smooth="yes"/>
      <point x="140" y="260"/>
      <point x="143" y="289"/>
      <point x="148" y="304" type="curve" smooth="yes"/>
      <point x="158" y="336"/>
      <point x="177" y="357"/>
      <point x="205" y="357" type="curve" smooth="yes"/>
      <point x="216" y="357"/>
      <point x="229" y="354"/>
      <point x="243" y="346" type="curve"/>
      <point x="281" y="446" type="line"/>
      <point x="253" y="466"/>
      <point x="224" y="475"/>
      <point x="196" y="475" type="curve" smooth="yes"/>
      <point x="129" y="475"/>
      <point x="69" y="422"/>
      <point x="44" y="341" type="curve" smooth="yes"/>
      <point x="36" y="316"/>
      <point x="30" y="274"/>
      <point x="30" y="229" type="curve" smooth="yes"/>
      <point x="30" y="125"/>
      <point x="62" y="0"/>
      <point x="179" y="0" type="curve" smooth="yes"/>
      <point x="232" y="0"/>
      <point x="271" y="32"/>
      <point x="287" y="79" type="curve"/>
      <point x="302" y="33"/>
      <point x="340" y="0"/>
      <point x="396" y="0" type="curve" smooth="yes"/>
      <point x="554" y="0"/>
      <point x="559" y="182"/>
      <point x="559" y="293" type="curve" smooth="yes"/>
    </contour>
  </outline>
</glyph>
<glyph name="si_Va" format="1">
  <advance width="551"/>
  <unicode hex="0DC0"/>
  <note>
	si_Va
  </note>
  <outline>
    <contour>
      <point x="164" y="755"/>
      <point x="80" y="708"/>
      <point x="44" y="613" type="curve"/>
      <point x="153" y="577" type="line"/>
      <point x="170" y="619"/>
      <point x="210" y="640"/>
      <point x="251" y="640" type="curve" smooth="yes"/>
      <point x="334" y="640"/>
      <point x="406" y="583"/>
      <point x="406" y="354" type="curve" smooth="yes"/>
      <point x="406" y="195"/>
      <point x="364" y="115"/>
      <point x="260" y="115" type="curve" smooth="yes"/>
      <point x="167" y="115"/>
      <point x="141" y="174"/>
      <point x="141" y="227" type="curve" smooth="yes"/>
      <point x="141" y="271"/>
      <point x="153" y="306"/>
      <point x="209" y="306" type="curve" smooth="yes"/>
      <point x="334" y="306" type="line"/>
      <point x="338" y="325"/>
      <point x="341" y="351"/>
      <point x="341" y="366" type="curve" smooth="yes"/>
      <point x="341" y="475"/>
      <point x="270" y="532"/>
      <point x="193" y="532" type="curve" smooth="yes"/>
      <point x="119" y="532"/>
      <point x="70" y="481"/>
      <point x="70" y="409" type="curve" smooth="yes"/>
      <point x="70" y="393"/>
      <point x="73" y="377"/>
      <point x="79" y="361" type="curve"/>
      <point x="50" y="335"/>
      <point x="30" y="279"/>
      <point x="30" y="219" type="curve" smooth="yes"/>
      <point x="30" y="137"/>
      <point x="82" y="0"/>
      <point x="260" y="0" type="curve" smooth="yes"/>
      <point x="440" y="0"/>
      <point x="521" y="118"/>
      <point x="521" y="354" type="curve" smooth="yes"/>
      <point x="521" y="676"/>
      <point x="390" y="755"/>
      <point x="251" y="755" type="curve" smooth="yes"/>
    </contour>
    <contour>
      <point x="166" y="391" type="line" smooth="yes"/>
      <point x="164" y="391"/>
      <point x="163" y="391"/>
      <point x="161" y="391" type="curve"/>
      <point x="160" y="396"/>
      <point x="159" y="400"/>
      <point x="159" y="405" type="curve" smooth="yes"/>
      <point x="159" y="426"/>
      <point x="168" y="444"/>
      <point x="193" y="444" type="curve" smooth="yes"/>
      <point x="226" y="444"/>
      <point x="244" y="419"/>
      <point x="245" y="391" type="curve"/>
    </contour>
  </outline>
</glyph>
<glyph name="daggerdbl" format="1">
  <advance width="448"/>
  <unicode hex="2021"/>
  <outline>
    <contour>
      <point x="205" y="172" type="line"/>
      <point x="211" y="178" type="line"/>
      <point x="30" y="180" type="line"/>
      <point x="30" y="143" type="line"/>
      <point x="211" y="145" type="line"/>
      <point x="205" y="150" type="line"/>
      <point x="202" y="-55" type="line"/>
      <point x="246" y="-55" type="line"/>
      <point x="243" y="150" type="line"/>
      <point x="238" y="145" type="line"/>
      <point x="418" y="143" type="line"/>
      <point x="418" y="180" type="line"/>
      <point x="237" y="178" type="line"/>
      <point x="243" y="172" type="line"/>
      <point x="246" y="323" type="line"/>
      <point x="243" y="469" type="line"/>
      <point x="237" y="463" type="line"/>
      <point x="418" y="461" type="line"/>
      <point x="418" y="498" type="line"/>
      <point x="238" y="496" type="line"/>
      <point x="243" y="491" type="line"/>
      <point x="246" y="696" type="line"/>
      <point x="202" y="696" type="line"/>
      <point x="205" y="491" type="line"/>
      <point x="211" y="496" type="line"/>
      <point x="30" y="498" type="line"/>
      <point x="30" y="461" type="line"/>
      <point x="211" y="463" type="line"/>
      <point x="205" y="469" type="line"/>
      <point x="202" y="323" type="line"/>
    </contour>
  </outline>
</glyph>
<glyph name="radical" format="1">
  <advance width="624"/>
  <unicode hex="221A"/>
  <outline>
    <contour>
      <point x="268" y="-120" type="line"/>
      <point x="482" y="710" type="line"/>
      <point x="475" y="704" type="line"/>
      <point x="624" y="704" type="line"/>
      <point x="624" y="739" type="line"/>
      <point x="449" y="739" type="line"/>
      <point x="250" y="-69" type="line"/>
      <point x="261" y="-69" type="line"/>
      <point x="98" y="377" type="line"/>
      <point x="0" y="339" type="line"/>
      <point x="12" y="307" type="line"/>
      <point x="79" y="332" type="line"/>
      <point x="71" y="337" type="line"/>
      <point x="238" y="-120" type="line"/>
    </contour>
  </outline>
</glyph>
<glyph name="notequal" format="1">
  <advance width="574"/>
  <unicode hex="2260"/>
  <outline>
    <contour>
      <point x="316" y="500" type="line"/>
      <point x="138" y="10" type="line"/>
      <point x="256" y="10" type="line"/>
      <point x="432" y="500" type="line"/>
    </contour>
    <component base="equal"/>
  </outline>
</glyph>
<glyph name="NameMe.12" format="1">
  <advance width="630"/>
  <note>
	NameMe.12
  </note>
  <outline>
    <contour>
      <point x="357" y="592"/>
      <point x="352" y="608"/>
      <point x="352" y="625" type="curve"/>
      <point x="363" y="619"/>
      <point x="375" y="610"/>
      <point x="385" y="601" type="curve" smooth="yes"/>
      <point x="401" y="587"/>
      <point x="417" y="565"/>
      <point x="429" y="546" type="curve"/>
      <point x="424" y="545"/>
      <point x="419" y="544"/>
      <point x="415" y="544" type="curve" smooth="yes"/>
      <point x="392" y="544"/>
      <point x="375" y="558"/>
      <point x="363" y="580" type="curve" smooth="yes"/>
    </contour>
    <contour>
      <point x="225" y="750" type="line"/>
      <point x="243" y="657" type="line"/>
      <point x="243" y="652" type="line"/>
      <point x="244" y="652" type="line"/>
      <point x="248" y="653" type="line"/>
      <point x="249" y="653" type="line"/>
      <point x="249" y="653"/>
      <point x="250" y="653"/>
      <point x="250" y="653" type="curve" smooth="yes"/>
      <point x="292" y="653"/>
      <point x="245" y="460"/>
      <point x="419" y="460" type="curve" smooth="yes"/>
      <point x="433" y="460"/>
      <point x="449" y="461"/>
      <point x="467" y="464" type="curve"/>
      <point x="484" y="410"/>
      <point x="493" y="349"/>
      <point x="493" y="291" type="curve" smooth="yes"/>
      <point x="493" y="253"/>
      <point x="489" y="215"/>
      <point x="481" y="182" type="curve" smooth="yes"/>
      <point x="467" y="125"/>
      <point x="439" y="122"/>
      <point x="420" y="122" type="curve" smooth="yes"/>
      <point x="379" y="122"/>
      <point x="363" y="173"/>
      <point x="363" y="244" type="curve" smooth="yes"/>
      <point x="363" y="250" type="line"/>
      <point x="267" y="250" type="line"/>
      <point x="267" y="244" type="line" smooth="yes"/>
      <point x="267" y="173"/>
      <point x="253" y="122"/>
      <point x="208" y="122" type="curve" smooth="yes"/>
      <point x="173" y="122"/>
      <point x="157" y="155"/>
      <point x="157" y="199" type="curve" smooth="yes"/>
      <point x="157" y="238"/>
      <point x="170" y="281"/>
      <point x="191" y="308" type="curve"/>
      <point x="350" y="308" type="line"/>
      <point x="350" y="312" type="line"/>
      <point x="352" y="326"/>
      <point x="353" y="340"/>
      <point x="353" y="353" type="curve" smooth="yes"/>
      <point x="353" y="465"/>
      <point x="289" y="519"/>
      <point x="223" y="526" type="curve" smooth="yes"/>
      <point x="218" y="527"/>
      <point x="212" y="527"/>
      <point x="207" y="527" type="curve" smooth="yes"/>
      <point x="149" y="527"/>
      <point x="94" y="491"/>
      <point x="87" y="429" type="curve" smooth="yes"/>
      <point x="87" y="426"/>
      <point x="87" y="423"/>
      <point x="87" y="419" type="curve" smooth="yes"/>
      <point x="87" y="410"/>
      <point x="88" y="401"/>
      <point x="89" y="391" type="curve"/>
      <point x="25" y="391" type="line"/>
      <point x="25" y="306" type="line"/>
      <point x="79" y="306" type="line"/>
      <point x="63" y="277"/>
      <point x="51" y="229"/>
      <point x="51" y="187" type="curve" smooth="yes"/>
      <point x="51" y="81"/>
      <point x="107" y="0"/>
      <point x="201" y="0" type="curve" smooth="yes"/>
      <point x="254" y="0"/>
      <point x="297" y="32"/>
      <point x="313" y="79" type="curve"/>
      <point x="328" y="33"/>
      <point x="368" y="0"/>
      <point x="424" y="0" type="curve" smooth="yes"/>
      <point x="445" y="0"/>
      <point x="464" y="4"/>
      <point x="481" y="11" type="curve"/>
      <point x="489" y="-6"/>
      <point x="492" y="-21"/>
      <point x="492" y="-35" type="curve" smooth="yes"/>
      <point x="492" y="-102"/>
      <point x="407" y="-134"/>
      <point x="325" y="-134" type="curve" smooth="yes"/>
      <point x="248" y="-134"/>
      <point x="175" y="-107"/>
      <point x="175" y="-56" type="curve" smooth="yes"/>
      <point x="175" y="-48"/>
      <point x="177" y="-39"/>
      <point x="181" y="-30" type="curve"/>
      <point x="74" y="8" type="line"/>
      <point x="64" y="-17"/>
      <point x="59" y="-41"/>
      <point x="59" y="-63" type="curve" smooth="yes"/>
      <point x="59" y="-178"/>
      <point x="187" y="-244"/>
      <point x="322" y="-244" type="curve" smooth="yes"/>
      <point x="472" y="-244"/>
      <point x="598" y="-176"/>
      <point x="598" y="-49" type="curve" smooth="yes"/>
      <point x="598" y="-10"/>
      <point x="586" y="35"/>
      <point x="559" y="85" type="curve"/>
      <point x="576" y="115"/>
      <point x="587" y="150"/>
      <point x="592" y="187" type="curve" smooth="yes"/>
      <point x="598" y="227"/>
      <point x="600" y="266"/>
      <point x="600" y="304" type="curve" smooth="yes"/>
      <point x="600" y="458"/>
      <point x="555" y="596"/>
      <point x="461" y="685" type="curve" smooth="yes"/>
      <point x="409" y="734"/>
      <point x="337" y="766"/>
      <point x="260" y="766" type="curve" smooth="yes"/>
      <point x="250" y="766"/>
      <point x="239" y="765"/>
      <point x="229" y="764" type="curve"/>
      <point x="223" y="763" type="line"/>
      <point x="226" y="750" type="line"/>
    </contour>
    <contour>
      <point x="203" y="446"/>
      <point x="206" y="447"/>
      <point x="210" y="447" type="curve" smooth="yes"/>
      <point x="224" y="447"/>
      <point x="239" y="438"/>
      <point x="246" y="417" type="curve"/>
      <point x="248" y="410"/>
      <point x="250" y="402"/>
      <point x="250" y="392" type="curve"/>
      <point x="177" y="392" type="line"/>
      <point x="175" y="398"/>
      <point x="174" y="404"/>
      <point x="174" y="410" type="curve" smooth="yes"/>
      <point x="174" y="428"/>
      <point x="185" y="440"/>
      <point x="199" y="445" type="curve"/>
    </contour>
  </outline>
</glyph>
